<svg xmlns="http://www.w3.org/2000/svg" xmlns:xlink="http://www.w3.org/1999/xlink" width="147" zoomAndPan="magnify" viewBox="0 0 110.25 119.999999" height="160" preserveAspectRatio="xMidYMid meet" version="1.0"><defs><g/><clipPath id="aa98c8eb58"><path d="M 0 15 L 100 15 L 100 118.851562 L 0 118.851562 Z M 0 15 " clip-rule="nonzero"/></clipPath><clipPath id="e8fc0ea683"><path d="M 86 0.40625 L 91 0.40625 L 91 10 L 86 10 Z M 86 0.40625 " clip-rule="nonzero"/></clipPath><clipPath id="c3c603cd37"><path d="M 103 22 L 109.503906 22 L 109.503906 28 L 103 28 Z M 103 22 " clip-rule="nonzero"/></clipPath></defs><path fill="#f4f6fc" d="M 51.792969 17.957031 C 60.382812 18.496094 67.347656 18.039062 74.316406 17.664062 C 78.074219 17.464844 81.835938 17.324219 85.597656 17.191406 C 86.457031 17.164062 87.316406 17.269531 88.171875 17.355469 C 89.511719 17.492188 90.5 18.265625 91.285156 19.277344 C 91.550781 19.625 91.792969 20.15625 91.730469 20.558594 C 91.585938 21.472656 91.984375 22.242188 92.144531 23.078125 C 92.597656 25.460938 93.027344 27.847656 93.460938 30.234375 C 94.046875 33.476562 94.3125 36.75 94.53125 40.039062 C 94.746094 43.242188 95.175781 46.429688 95.492188 49.628906 C 95.722656 51.964844 95.945312 54.304688 96.113281 56.648438 C 96.582031 63.136719 97.078125 69.625 96.84375 76.136719 C 96.726562 79.421875 96.464844 82.703125 96.191406 85.980469 C 95.945312 88.949219 95.609375 91.90625 95.277344 94.863281 C 94.824219 98.914062 94.347656 102.957031 93.855469 107 C 93.789062 107.542969 93.707031 108.109375 93.492188 108.601562 C 93.164062 109.34375 93.121094 110.078125 93.132812 110.875 C 93.167969 113.585938 91.867188 115.179688 89.140625 115.433594 C 86.875 115.652344 84.605469 115.683594 82.335938 115.519531 C 75.289062 114.976562 68.238281 114.90625 61.179688 114.941406 C 57.101562 114.960938 53.027344 114.898438 48.949219 114.933594 C 46.601562 114.957031 44.257812 115.136719 41.910156 115.175781 C 37.820312 115.25 33.808594 116.042969 29.746094 116.355469 C 28.980469 116.417969 28.140625 116.453125 27.445312 116.203125 C 26.585938 115.890625 25.824219 115.816406 24.949219 116.027344 C 24.03125 116.257812 23.101562 116.382812 22.15625 116.410156 C 21.230469 116.429688 20.261719 116.386719 19.378906 116.140625 C 18.007812 115.75 17.089844 114.757812 16.800781 113.347656 C 16.601562 112.355469 16.472656 111.324219 16.503906 110.316406 C 16.636719 105.855469 16.710938 101.382812 17.039062 96.933594 C 17.78125 86.773438 18.746094 76.632812 19.460938 66.46875 C 19.914062 60.058594 19.929688 53.625 19.398438 47.207031 C 19.300781 46.035156 19.226562 44.859375 19.242188 43.683594 C 19.300781 38.421875 18.761719 33.199219 18.238281 27.976562 C 18.046875 26.042969 17.671875 24.148438 16.558594 22.449219 C 15.792969 21.273438 16.242188 19.878906 17.519531 19.285156 C 18.207031 18.964844 19.011719 18.800781 19.777344 18.765625 C 22.988281 18.621094 26.199219 18.550781 29.414062 18.453125 C 32.863281 18.347656 36.308594 18.222656 39.757812 18.152344 C 44.304688 18.058594 48.851562 18.003906 51.792969 17.957031 Z M 51.792969 17.957031 " fill-opacity="1" fill-rule="nonzero"/><path fill="#8455F6" d="M 28.925781 30.109375 C 31.730469 30.53125 34.1875 30.355469 36.667969 30.183594 C 39.9375 29.953125 43.238281 30.082031 46.503906 29.8125 C 48.363281 29.65625 50.21875 30.089844 52.0625 29.710938 C 52.378906 29.644531 52.6875 29.667969 52.988281 29.78125 C 53.992188 30.199219 55.003906 30 56.003906 29.871094 C 58.113281 29.589844 60.222656 29.617188 62.460938 29.789062 C 62.605469 30.285156 62.890625 30.796875 62.882812 31.304688 C 62.871094 32.8125 63.152344 34.238281 63.839844 35.578125 C 63.882812 35.644531 63.914062 35.714844 63.933594 35.792969 C 64.449219 38.90625 66.589844 41.253906 67.835938 44.023438 C 67.925781 44.242188 68.0625 44.433594 68.242188 44.589844 C 69.601562 45.636719 70.917969 46.757812 72.363281 47.667969 C 73.675781 48.496094 75.136719 49.089844 76.53125 49.777344 C 76.742188 49.882812 76.960938 49.992188 77.1875 50.027344 C 79.03125 50.320312 80.871094 50.632812 82.722656 50.851562 C 83.242188 50.910156 83.796875 50.6875 84.332031 50.574219 C 84.925781 50.453125 85.515625 50.304688 86.035156 50.1875 C 86.558594 50.734375 86.257812 51.167969 86.140625 51.59375 C 85.445312 54.101562 85.101562 56.65625 85.113281 59.261719 C 85.117188 60.527344 85.300781 61.714844 85.898438 62.882812 C 86.722656 64.484375 86.328125 65.855469 85.050781 66.535156 C 83.855469 67.167969 82.613281 66.75 81.636719 65.359375 C 80.554688 63.828125 79.46875 62.296875 78.40625 60.75 C 77.457031 59.375 76.269531 58.230469 74.921875 57.28125 C 73.328125 56.15625 71.457031 55.878906 69.542969 55.992188 C 69.101562 56.019531 68.636719 56.261719 68.253906 56.507812 C 66.40625 57.6875 64.574219 58.886719 62.753906 60.109375 C 61.714844 60.8125 60.757812 61.640625 59.6875 62.289062 C 57.550781 63.574219 55.839844 63.207031 54.449219 61.097656 C 53.457031 59.59375 52.667969 57.964844 51.753906 56.414062 C 51.15625 55.40625 50.507812 54.421875 49.847656 53.457031 C 49.320312 52.691406 48.542969 52.394531 47.621094 52.34375 C 46.496094 52.285156 45.460938 52.523438 44.441406 53 C 42.222656 54.03125 40.21875 55.390625 38.269531 56.855469 C 37.582031 57.375 36.90625 57.929688 36.148438 58.324219 C 34.128906 59.382812 32.140625 58.453125 31.625 56.238281 C 31.5 55.710938 31.480469 55.152344 31.464844 54.605469 C 31.421875 53.039062 31.40625 51.472656 31.378906 49.90625 C 31.285156 44.40625 30.753906 38.953125 29.550781 33.578125 C 29.3125 32.515625 29.164062 31.4375 28.925781 30.109375 Z M 42.113281 46.386719 C 42.644531 44.929688 42.15625 43.78125 41.164062 42.777344 C 40.65625 42.261719 40.070312 41.925781 39.285156 42.183594 C 38.382812 42.488281 37.863281 43.117188 37.734375 44.035156 C 37.695312 44.316406 37.765625 44.746094 37.957031 44.902344 C 39.140625 45.867188 40.320312 46.945312 42.113281 46.386719 Z M 47.988281 42.039062 C 48.648438 40.875 48.285156 40.105469 47.894531 39.34375 C 47.523438 38.621094 46.855469 38.226562 46.144531 37.914062 C 45.679688 37.707031 44.855469 37.917969 44.707031 38.34375 C 44.5625 38.742188 44.460938 39.339844 44.660156 39.644531 C 45.15625 40.421875 45.761719 41.113281 46.46875 41.714844 C 46.816406 42.003906 47.453125 41.9375 47.988281 42.039062 Z M 47.988281 42.039062 " fill-opacity="1" fill-rule="nonzero"/><path fill="#8455F6" d="M 30.933594 27.570312 C 31.691406 27.371094 32.210938 27.207031 32.644531 26.710938 C 33.390625 25.851562 34.4375 25.46875 35.566406 25.359375 C 37.28125 25.199219 39 24.941406 40.71875 24.9375 C 47.617188 24.914062 54.519531 24.960938 61.417969 25.019531 C 62.511719 25.027344 63.609375 25.171875 64.691406 25.359375 C 66.597656 25.6875 67.738281 26.847656 68.109375 28.753906 C 68.277344 29.597656 68.421875 30.449219 68.59375 31.292969 C 69.328125 34.847656 70.921875 37.925781 73.703125 40.332031 C 75.304688 41.714844 76.894531 43.109375 78.507812 44.476562 C 78.984375 44.882812 79.472656 45.234375 79.546875 45.933594 C 79.558594 46.050781 80 46.257812 80.074219 46.203125 C 80.289062 46.039062 80.417969 45.761719 80.652344 45.421875 C 80.3125 45.34375 80.078125 45.207031 79.9375 45.269531 C 79.394531 45.515625 78.882812 45.492188 78.339844 45.304688 C 77.386719 44.972656 76.421875 44.660156 75.464844 44.335938 C 75.320312 44.289062 75.140625 44.242188 75.046875 44.136719 C 73.992188 42.882812 72.523438 42.125 71.476562 40.792969 C 69.859375 38.734375 69.003906 36.277344 67.554688 34.152344 C 67.183594 33.605469 67.195312 32.804688 67.035156 32.121094 C 66.839844 31.289062 66.652344 30.460938 66.433594 29.507812 C 66.542969 29.074219 66.882812 28.457031 66.773438 27.925781 C 66.6875 27.492188 66.113281 27.089844 65.671875 26.820312 C 65.367188 26.632812 64.910156 26.648438 64.523438 26.65625 C 63.28125 26.667969 62.035156 26.726562 60.792969 26.757812 C 58.214844 26.820312 55.632812 26.835938 53.054688 26.945312 C 51.65625 27.007812 50.265625 27.222656 48.875 26.875 C 48.71875 26.84375 48.5625 26.84375 48.40625 26.871094 C 44.445312 27.398438 40.449219 26.910156 36.492188 27.324219 C 34.699219 27.503906 32.921875 27.527344 30.933594 27.570312 Z M 30.933594 27.570312 " fill-opacity="1" fill-rule="nonzero"/><path fill="#8455F6" d="M 29.347656 98.78125 C 29.203125 99.453125 29.03125 100.53125 28.71875 101.566406 C 28.53125 102.183594 28.019531 102.59375 27.292969 102.585938 C 26.566406 102.578125 26.082031 102.1875 25.863281 101.566406 C 25.605469 100.835938 25.394531 100.0625 25.328125 99.296875 C 25.242188 98.289062 25.292969 97.265625 25.339844 96.253906 C 25.367188 95.785156 25.464844 95.328125 25.625 94.886719 C 25.894531 94.109375 26.515625 93.644531 27.167969 93.675781 C 27.867188 93.703125 28.339844 94.097656 28.613281 94.703125 C 28.808594 95.128906 28.945312 95.574219 29.023438 96.035156 C 29.15625 96.804688 29.214844 97.585938 29.347656 98.78125 Z M 29.347656 98.78125 " fill-opacity="1" fill-rule="nonzero"/><path fill="#8455F6" d="M 33.277344 95.875 C 32.386719 95.871094 31.558594 95.070312 31.613281 94.269531 C 31.648438 93.789062 32.21875 93.234375 32.710938 93.207031 C 33.5 93.164062 34.160156 93.976562 34.175781 94.996094 C 34.171875 95.242188 34.082031 95.453125 33.90625 95.621094 C 33.734375 95.792969 33.523438 95.878906 33.277344 95.875 Z M 33.277344 95.875 " fill-opacity="1" fill-rule="nonzero"/><g clip-path="url(#aa98c8eb58)"><path fill="#372e17" d="M 99.0625 54.148438 L 99.0625 55.9375 C 98.800781 56.542969 98.476562 57.203125 99.070312 57.726562 C 99.113281 58.398438 99.121094 58.953125 99.199219 59.492188 C 99.265625 59.945312 99.417969 60.382812 99.53125 60.824219 C 99.097656 61.316406 99.191406 61.828125 99.53125 62.441406 C 99.53125 62.964844 99.53125 63.585938 99.53125 64.207031 C 99.53125 64.285156 99.566406 64.382812 99.53125 64.441406 C 99.066406 65.238281 99.238281 66.117188 99.210938 66.964844 C 99.199219 67.339844 99.375 67.714844 99.539062 68.390625 L 99.539062 73.964844 C 99.167969 74.527344 99.121094 75.109375 99.550781 75.691406 L 99.550781 77.550781 C 99.457031 77.941406 99.195312 78.25 99.210938 78.671875 C 99.304688 81.332031 98.992188 83.988281 99.050781 86.652344 C 99.054688 86.882812 99.027344 87.109375 98.96875 87.332031 C 98.570312 88.867188 98.472656 90.417969 98.679688 91.984375 C 98.722656 92.296875 98.816406 92.625 98.753906 92.914062 C 98.46875 94.238281 98.703125 95.574219 98.597656 96.902344 C 98.410156 97.328125 98.246094 97.746094 98.238281 98.238281 C 98.230469 99.492188 98.160156 100.746094 98.117188 101.996094 C 97.511719 103.175781 97.871094 104.457031 97.746094 105.6875 C 97.628906 106.851562 97.648438 108.03125 97.605469 109.277344 C 97.207031 109.8125 97.382812 110.59375 97.097656 111.222656 C 96.832031 111.8125 96.832031 112.4375 96.691406 113.105469 L 95.441406 114.140625 C 95.316406 114.53125 95.144531 114.960938 95.046875 115.40625 C 94.945312 115.847656 94.914062 116.328125 94.851562 116.796875 L 93.765625 117.894531 C 93.125 118.152344 92.574219 118.058594 92.027344 118.039062 C 91.015625 117.992188 89.996094 117.941406 89.027344 118.367188 C 88.828125 118.457031 88.527344 118.503906 88.347656 118.414062 C 87.53125 118.003906 86.664062 118.199219 85.875 118.109375 C 85.160156 118.515625 84.503906 118.566406 83.847656 118.089844 C 82.839844 118.089844 81.824219 118.089844 80.804688 118.089844 C 80.332031 118.089844 79.882812 118.195312 79.460938 118.410156 C 79.230469 118.507812 79 118.503906 78.773438 118.398438 C 77.816406 117.855469 76.769531 118.183594 75.773438 118.046875 C 75.082031 117.949219 74.367188 118.027344 73.765625 118.027344 C 73.519531 118.121094 73.351562 118.148438 73.230469 118.242188 C 72.882812 118.5 72.480469 118.539062 72.128906 118.375 C 71.433594 118.042969 70.800781 118.042969 70.109375 118.402344 C 69.796875 118.550781 69.5 118.523438 69.21875 118.316406 C 68.691406 117.902344 68.203125 118.109375 67.710938 118.433594 C 67.148438 118.316406 66.621094 117.84375 65.976562 118.335938 C 65.675781 118.566406 65.269531 118.4375 64.886719 118.277344 C 64.347656 118.046875 64.324219 118.097656 63.621094 118.371094 C 63.375 118.269531 63.167969 118.140625 62.949219 118.101562 C 62.636719 118.058594 62.324219 118.042969 62.011719 118.054688 C 60.25 118.085938 60.25 118.085938 58.554688 117.675781 L 57.652344 118.035156 C 55.183594 117.910156 52.675781 118.085938 50.121094 117.949219 L 49.542969 117.703125 C 49.019531 117.925781 48.460938 118.148438 47.949219 117.953125 C 46.667969 117.464844 45.347656 117.546875 44.027344 117.53125 C 42.777344 117.515625 41.523438 117.539062 40.269531 117.542969 C 39.722656 117.542969 39.171875 117.507812 38.625 117.550781 C 38.074219 117.59375 37.535156 117.644531 36.988281 117.527344 C 36.753906 117.488281 36.519531 117.480469 36.285156 117.496094 C 34.097656 117.578125 31.910156 117.640625 29.714844 117.496094 C 29.082031 117.457031 28.464844 117.53125 27.859375 117.726562 C 27.25 117.929688 26.648438 117.984375 26.03125 117.996094 C 24.382812 118.019531 22.742188 118.019531 21.101562 118.066406 C 20.5625 118.082031 19.984375 117.972656 19.492188 118.28125 C 19.058594 118.558594 18.5625 118.320312 18.132812 118.496094 C 17.847656 118.609375 17.582031 118.757812 17.304688 118.890625 C 16.375 118.652344 15.59375 118.175781 15.03125 117.320312 C 14.738281 116.078125 14.328125 114.835938 13.703125 113.667969 C 13.519531 113.324219 13.503906 113.027344 13.738281 112.558594 C 14.074219 111.90625 14.167969 111.222656 14.019531 110.503906 C 13.890625 109.882812 13.898438 109.257812 14.050781 108.640625 C 14.21875 108.296875 14.507812 108.019531 14.535156 107.597656 C 14.570312 107.078125 14.355469 106.839844 13.890625 106.972656 C 13.75 107.011719 13.570312 107.164062 13.480469 107.121094 C 12.75 106.761719 11.96875 106.789062 11.195312 106.753906 C 10.964844 106.742188 10.683594 106.746094 10.519531 106.621094 C 9.925781 106.179688 9.152344 106.324219 8.546875 105.917969 C 7.90625 105.492188 7.207031 105.160156 6.542969 104.765625 C 5.9375 104.40625 5.363281 104 4.640625 103.902344 C 4.136719 103.828125 3.933594 103.300781 3.410156 103.054688 L 1.785156 102.96875 C 0.902344 102.621094 0.832031 101.820312 0.507812 101.34375 C 0 99.816406 0.515625 98.488281 0.972656 97.058594 L 1.792969 95.976562 C 1.816406 95.632812 1.761719 95.214844 1.894531 94.867188 C 2.035156 94.507812 2.234375 94.164062 2.261719 93.769531 C 2.28125 93.382812 2.363281 93.003906 2.5 92.640625 C 2.691406 92.144531 2.636719 91.546875 2.84375 91.0625 C 3.066406 90.542969 3.128906 90.015625 3.242188 89.480469 C 3.316406 89.109375 3.527344 88.761719 3.597656 88.386719 C 3.683594 87.925781 3.6875 87.453125 3.722656 86.976562 C 3.910156 86.5625 4.0625 86.113281 4.300781 85.71875 C 4.511719 85.367188 4.507812 84.949219 4.683594 84.628906 C 5.039062 84 5.1875 83.328125 5.125 82.605469 C 5.089844 82.132812 5.109375 81.675781 5.375 81.253906 C 5.453125 81.132812 5.472656 80.957031 5.484375 80.804688 C 5.539062 79.867188 5.582031 78.929688 5.632812 77.964844 C 5.722656 77.789062 5.910156 77.582031 5.921875 77.367188 C 5.960938 76.511719 6.324219 75.714844 6.40625 74.863281 C 6.441406 74.476562 6.417969 74.042969 6.585938 73.714844 C 7.117188 72.675781 7.023438 71.582031 7.015625 70.53125 C 7.324219 69.863281 7.613281 69.226562 7.878906 68.648438 C 7.910156 67.644531 7.9375 66.707031 7.96875 65.753906 C 8.585938 64.941406 8.335938 63.960938 8.476562 62.894531 C 8.652344 62.546875 8.980469 62.089844 9.128906 61.582031 C 9.386719 60.703125 9.816406 59.871094 9.753906 58.894531 C 9.699219 58.042969 9.816406 57.179688 9.855469 56.320312 C 10.433594 55.308594 10.152344 54.171875 10.3125 53.195312 C 10.375 52.8125 10.65625 52.527344 10.640625 52.246094 C 10.539062 50.515625 10.84375 48.804688 10.789062 47.054688 L 11.53125 45.390625 C 11.632812 44.816406 11.539062 44.277344 11.246094 43.773438 C 11.382812 43.441406 11.53125 43.085938 11.707031 42.660156 L 11.707031 40.882812 C 11.832031 40.648438 11.941406 40.445312 12.109375 40.132812 C 12.144531 39.066406 12.179688 37.894531 12.222656 36.660156 C 12.257812 36.582031 12.316406 36.445312 12.375 36.304688 C 12.433594 36.167969 12.496094 36.019531 12.566406 35.839844 L 12.566406 31.894531 C 12.699219 31.109375 13.085938 30.664062 13.070312 30.085938 C 13.054688 29.617188 13.164062 29.140625 13.125 28.675781 C 12.984375 26.953125 13.105469 25.230469 13.140625 23.507812 C 13.160156 22.570312 13.164062 21.632812 13.078125 20.691406 C 13.007812 19.917969 13.121094 19.132812 13.15625 18.265625 C 13.398438 17.667969 13.804688 17.222656 14.378906 16.929688 L 15.480469 16.929688 L 16.601562 16.074219 C 17.246094 15.875 17.882812 15.902344 18.496094 15.988281 C 19.285156 16.097656 20.0625 15.96875 20.84375 15.976562 C 21.167969 15.976562 21.445312 15.867188 21.722656 15.695312 C 21.921875 15.570312 22.144531 15.601562 22.367188 15.761719 C 22.691406 15.992188 23.082031 16.070312 23.480469 16.070312 C 24.261719 16.070312 25.046875 16.070312 25.828125 16.058594 C 26.535156 16.042969 27.238281 16 27.96875 15.96875 C 28.25 16.097656 28.519531 16.246094 28.8125 16.355469 C 29.371094 16.558594 29.886719 16.457031 30.351562 16.085938 C 31.046875 16.046875 31.757812 15.871094 32.40625 16.285156 C 33.410156 16.40625 34.410156 16.621094 35.402344 16.160156 C 35.65625 16.042969 36.070312 16.015625 36.296875 16.144531 C 37.027344 16.558594 37.820312 16.460938 38.625 16.558594 C 38.816406 16.484375 39.0625 16.449219 39.25 16.324219 C 39.847656 15.925781 40.421875 15.972656 41.003906 16.335938 C 41.097656 16.382812 41.195312 16.417969 41.292969 16.445312 C 42.070312 16.371094 42.945312 16.644531 43.757812 16.195312 C 43.816406 16.160156 43.875 16.152344 43.941406 16.167969 C 45.117188 16.8125 46.421875 16.238281 47.527344 16.644531 C 47.933594 16.457031 48.210938 16.320312 48.496094 16.195312 C 48.90625 16.019531 49.0625 16.019531 49.605469 16.191406 C 49.75 16.238281 49.898438 16.289062 50.042969 16.335938 L 50.6875 16.0625 C 51.304688 16.09375 51.945312 16.011719 52.453125 16.414062 L 55.441406 16.414062 L 56.1875 16.089844 C 56.335938 16.0625 56.484375 16.046875 56.636719 16.039062 C 58.4375 16.035156 60.242188 16.039062 62.042969 16.035156 C 62.746094 16.035156 63.417969 16.082031 64.097656 16.335938 C 64.800781 16.597656 65.125 16.484375 66.316406 16.082031 L 66.957031 16.367188 L 67.539062 16.097656 C 68.398438 16.050781 69.179688 16.003906 69.960938 15.972656 C 70.269531 15.957031 70.59375 15.941406 70.894531 16 C 71.835938 16.191406 72.726562 16.039062 73.566406 15.710938 C 74.546875 16.257812 75.59375 15.960938 76.589844 16.019531 C 77.523438 16.070312 78.464844 16.058594 79.40625 15.589844 C 79.980469 15.894531 80.625 16.132812 81.351562 16.105469 C 82.144531 16.078125 82.902344 15.945312 83.640625 15.5625 C 85.097656 15.59375 86.585938 15.539062 88.070312 15.621094 C 88.226562 15.628906 88.390625 15.65625 88.539062 15.621094 C 89.628906 15.355469 90.71875 15.433594 91.808594 15.617188 C 92.617188 15.421875 93.316406 15.847656 94.070312 15.96875 C 94.863281 16.097656 95.320312 16.542969 95.714844 17.160156 C 95.929688 17.722656 95.328125 18.140625 95.433594 18.714844 C 95.519531 19.167969 95.453125 19.652344 95.453125 20.296875 C 95.5 20.425781 95.609375 20.714844 95.75 21.085938 C 95.792969 22.167969 95.839844 23.335938 95.890625 24.636719 C 95.972656 24.796875 96.105469 25.070312 96.277344 25.410156 L 96.277344 29.085938 L 96.789062 30.101562 C 96.789062 30.566406 96.789062 31.191406 96.789062 31.816406 C 96.789062 32.441406 96.777344 33.0625 97.121094 33.636719 C 97.230469 33.828125 97.214844 34.089844 97.261719 34.316406 C 97.375 34.847656 97.246094 35.40625 97.53125 35.921875 C 97.800781 36.421875 97.574219 36.996094 97.664062 37.53125 C 97.714844 37.917969 97.808594 38.292969 97.945312 38.660156 C 98.222656 39.359375 98.210938 39.511719 97.921875 40.433594 C 97.824219 40.738281 97.773438 41.035156 97.972656 41.324219 C 98.203125 41.660156 98.308594 42.027344 98.292969 42.433594 C 98.269531 43.761719 98.246094 45.085938 98.222656 46.542969 L 98.546875 47.332031 C 98.671875 49.15625 98.753906 51.027344 98.691406 52.90625 C 98.683594 53.273438 98.90625 53.648438 99.0625 54.148438 Z M 71.96875 113.820312 C 72.449219 113.648438 72.816406 113.320312 73.320312 113.328125 C 74.179688 113.34375 75.050781 113.25 75.898438 113.359375 C 76.84375 113.488281 77.773438 113.238281 78.707031 113.378906 C 79.488281 113.496094 80.273438 113.449219 81.050781 113.332031 C 81.84375 113.210938 82.617188 113.308594 83.371094 113.539062 C 83.667969 113.628906 83.9375 113.796875 83.820312 113.824219 C 84.617188 113.566406 84.976562 113.40625 85.351562 113.339844 C 85.726562 113.273438 86.1875 113.417969 86.515625 113.269531 C 87.273438 112.917969 88.046875 113.019531 88.820312 112.996094 C 89.597656 112.976562 90.386719 112.957031 91.167969 112.910156 C 91.292969 112.902344 91.410156 112.746094 91.597656 112.605469 C 91.625 112.042969 91.613281 111.417969 91.699219 110.808594 C 91.789062 110.203125 91.992188 109.601562 92.125 108.996094 C 92.195312 108.691406 92.230469 108.378906 92.230469 108.066406 C 92.222656 107.75 92.285156 107.449219 92.421875 107.164062 C 92.613281 106.738281 92.792969 106.304688 92.949219 105.933594 C 93.210938 104.421875 92.992188 102.914062 93.464844 101.480469 C 93.523438 100.230469 93.585938 98.980469 93.648438 97.691406 C 94.097656 97.140625 93.824219 96.542969 93.65625 95.980469 C 93.777344 95.417969 93.960938 94.890625 93.996094 94.355469 C 94.105469 92.808594 93.851562 91.230469 94.46875 89.734375 C 94.527344 89.597656 94.5 89.425781 94.503906 89.269531 C 94.515625 88.019531 94.527344 86.765625 94.539062 85.597656 C 94.683594 85.304688 94.78125 85.097656 94.921875 84.804688 C 94.90625 84.570312 94.875 84.261719 94.863281 83.953125 C 94.800781 82.152344 94.925781 80.355469 94.890625 78.554688 C 94.875 77.714844 94.921875 76.851562 95.207031 76.007812 C 95.402344 75.433594 95.378906 74.773438 95.355469 74.152344 C 95.335938 73.699219 95.160156 73.25 95.058594 72.800781 C 95.394531 72.058594 95.515625 71.296875 95.191406 70.53125 C 94.789062 69.585938 94.949219 68.699219 95.394531 67.757812 C 95.339844 67.195312 95.382812 66.539062 95.191406 65.96875 C 94.9375 65.214844 94.855469 64.441406 94.945312 63.652344 C 95.027344 62.867188 94.964844 62.09375 94.90625 61.3125 C 94.84375 60.457031 94.90625 59.59375 94.898438 58.734375 C 94.898438 58.507812 94.867188 58.25 94.761719 58.058594 C 94.367188 57.324219 94.515625 56.519531 94.472656 55.753906 C 94.445312 55.304688 94.636719 54.839844 94.753906 54.28125 C 94.613281 54.050781 94.441406 53.714844 94.441406 53.316406 C 94.441406 52.378906 94.378906 51.441406 94.414062 50.503906 C 94.433594 50.003906 94.097656 49.632812 94.054688 49.164062 C 93.980469 48.3125 94.078125 47.433594 93.660156 46.636719 C 93.625 46.574219 93.65625 46.480469 93.65625 46.394531 C 94.027344 45.84375 94.011719 45.222656 93.964844 44.578125 L 93.574219 43.640625 C 93.546875 41.773438 93.523438 39.816406 93.496094 37.859375 C 93.496094 37.707031 93.515625 37.519531 93.4375 37.402344 C 92.972656 36.695312 93.253906 35.851562 93.027344 35.121094 C 92.667969 33.984375 92.699219 32.8125 92.589844 31.652344 C 92.558594 31.347656 92.566406 31.011719 92.4375 30.742188 C 92.230469 30.300781 92.171875 29.847656 92.152344 29.382812 C 92.132812 28.835938 92.101562 28.285156 92.121094 27.738281 C 92.140625 27.164062 91.769531 26.703125 91.710938 26.164062 C 91.660156 25.695312 91.621094 25.230469 91.585938 24.761719 C 91.5625 24.449219 91.644531 24.089844 91.511719 23.835938 C 91.09375 23.035156 91.265625 22.140625 91.050781 21.351562 C 90.820312 21 90.75 20.585938 90.390625 20.363281 L 88.210938 19.835938 C 87.339844 20.277344 87.113281 20.371094 86.59375 20.265625 C 86.066406 20.160156 85.550781 19.980469 84.914062 19.796875 C 84.53125 20.085938 83.996094 20.132812 83.445312 20.171875 C 81.957031 20.273438 80.472656 20.273438 78.984375 20.171875 C 78.671875 20.152344 78.371094 20.09375 78.078125 19.988281 C 77.84375 19.898438 77.648438 19.878906 77.425781 19.988281 C 76.988281 20.191406 76.527344 20.257812 76.046875 20.191406 C 74.949219 20.046875 73.863281 20.222656 72.769531 20.195312 C 71.050781 20.160156 69.328125 20.359375 67.613281 20.117188 C 67.386719 20.085938 67.144531 20.160156 66.910156 20.175781 C 65.894531 20.242188 64.882812 20.332031 63.863281 20.128906 C 63.3125 20.015625 62.777344 20.191406 62.25 20.53125 C 61.546875 20.085938 60.808594 20.238281 60.125 20.597656 C 59.488281 20.371094 58.929688 20.085938 58.269531 20.167969 C 57.652344 20.238281 57.019531 20.226562 56.394531 20.269531 C 55.769531 20.316406 55.132812 20.234375 54.574219 20.597656 C 53.945312 20.609375 53.320312 20.628906 52.695312 20.632812 C 51.988281 20.640625 51.28125 20.628906 50.578125 20.640625 C 49.984375 20.652344 49.40625 20.132812 48.800781 20.589844 C 48.09375 20.621094 47.390625 20.65625 46.6875 20.683594 C 46.53125 20.6875 46.371094 20.617188 46.21875 20.636719 C 44.757812 20.824219 43.238281 20.371094 41.820312 21.035156 C 41.753906 21.066406 41.664062 21.035156 41.570312 21.035156 C 41.15625 20.851562 40.734375 20.632812 40.238281 20.726562 L 39.351562 21.109375 C 38.214844 21.117188 37.277344 21.132812 36.339844 21.128906 C 35.164062 21.128906 33.988281 21.140625 32.816406 21.082031 C 32.28125 21.054688 31.757812 20.855469 31.222656 20.761719 C 30.644531 20.65625 30.21875 21.144531 29.660156 21.183594 C 28.796875 21.242188 27.941406 21.265625 27.082031 21.125 C 26.773438 21.074219 26.464844 21.066406 26.15625 21.101562 C 24.4375 21.3125 22.71875 21.074219 21.074219 21.148438 L 20.367188 20.792969 C 19.894531 21.039062 19.933594 21.574219 19.722656 21.972656 C 19.761719 22.117188 19.777344 22.277344 19.84375 22.410156 C 20.207031 23.109375 20.378906 23.886719 20.449219 24.640625 C 20.519531 25.414062 20.398438 26.203125 20.867188 26.902344 C 21.378906 27.660156 20.785156 28.632812 21.339844 29.386719 C 21.382812 29.453125 21.402344 29.527344 21.402344 29.605469 C 21.40625 29.839844 21.390625 30.070312 21.355469 30.300781 C 21.289062 30.597656 21.175781 30.886719 21.101562 31.117188 C 21.242188 31.414062 21.375 31.617188 21.429688 31.839844 C 21.511719 32.144531 21.554688 32.449219 21.5625 32.761719 C 21.578125 33.621094 21.566406 34.484375 21.566406 35.253906 L 21.972656 36.164062 C 21.972656 38.070312 21.785156 39.957031 22.375 41.933594 C 22.324219 43.03125 22.308594 44.28125 22.476562 45.527344 C 22.121094 46.921875 22.582031 48.339844 22.347656 49.734375 C 22.644531 51.921875 22.28125 54.113281 22.449219 56.308594 C 22.519531 57.238281 22.421875 58.175781 22.484375 59.117188 C 22.550781 60.125 22.414062 61.148438 22.402344 62.164062 C 22.398438 63.023438 22.460938 63.882812 22.484375 64.746094 C 22.496094 65.136719 22.484375 65.523438 22.484375 65.90625 C 22.425781 66.054688 22.355469 66.195312 22.273438 66.335938 C 21.976562 66.765625 21.941406 67.207031 22.191406 67.652344 C 22.476562 68.167969 22.484375 68.703125 22.363281 69.246094 C 22.070312 70.5625 21.792969 72.210938 21.863281 73.171875 C 21.988281 74.8125 21.886719 76.449219 21.914062 78.117188 C 21.789062 78.375 21.652344 78.65625 21.476562 79.015625 C 21.476562 79.402344 21.5 79.871094 21.46875 80.339844 C 21.441406 80.808594 21.464844 81.3125 21.285156 81.722656 C 21.023438 82.324219 21.527344 82.746094 21.507812 83.289062 C 21.488281 83.789062 21.277344 84.183594 21.105469 84.597656 C 21.105469 85.242188 21.128906 85.863281 21.101562 86.488281 C 21.058594 87.347656 20.957031 88.203125 20.917969 89.0625 C 20.90625 89.382812 20.8125 89.671875 20.746094 89.972656 C 20.484375 91.128906 20.414062 92.292969 20.53125 93.46875 C 20.632812 94.402344 20.726562 95.355469 20.632812 96.28125 C 20.5 97.609375 20.511719 98.9375 20.496094 100.265625 C 20.492188 100.765625 20.195312 101.164062 20.171875 101.613281 C 20.109375 102.863281 20.199219 104.117188 20.101562 105.363281 C 20 106.679688 20.066406 108.011719 19.703125 109.3125 C 19.492188 110.066406 19.75 110.851562 20.011719 111.550781 C 19.765625 112.105469 19.527344 112.597656 19.324219 113.101562 C 19.238281 113.3125 19.21875 113.550781 19.179688 113.777344 C 19.140625 114.007812 19.375 114.265625 19.585938 114.214844 C 19.886719 114.144531 20.1875 114.050781 20.671875 113.914062 L 23.066406 113.914062 C 23.792969 114.484375 24.527344 114.320312 25.292969 113.894531 C 26.261719 114.109375 27.296875 113.722656 28.28125 114.148438 C 28.332031 114.171875 28.421875 114.125 28.488281 114.09375 C 28.847656 113.902344 29.230469 113.796875 29.621094 113.863281 C 30.074219 113.945312 30.515625 114.101562 30.984375 114.230469 L 32.726562 113.460938 C 32.925781 113.539062 33.128906 113.609375 33.335938 113.667969 C 34.546875 113.960938 36.242188 113.960938 37.507812 113.585938 C 37.890625 113.460938 38.261719 113.488281 38.617188 113.675781 C 38.753906 113.742188 38.917969 113.734375 39.074219 113.757812 L 39.898438 113.453125 C 40.460938 113.734375 40.964844 113.851562 41.5 113.527344 C 41.617188 113.453125 41.800781 113.492188 41.949219 113.480469 L 42.636719 113.777344 L 46.050781 113.777344 L 46.785156 113.492188 C 47.917969 113.757812 49.050781 113.9375 50.207031 113.460938 C 50.625 113.285156 51.132812 113.363281 51.582031 113.5625 C 51.785156 113.640625 51.992188 113.703125 52.199219 113.757812 C 53.144531 113.335938 53.152344 113.328125 54.03125 113.613281 C 54.5 113.765625 54.945312 113.804688 55.390625 113.613281 C 55.6875 113.484375 56.015625 113.367188 56.296875 113.476562 C 56.835938 113.691406 57.332031 113.628906 57.839844 113.421875 C 58.9375 113.433594 60.035156 113.464844 61.132812 113.453125 C 61.542969 113.453125 61.886719 113.625 62.261719 113.714844 C 62.875 113.859375 63.542969 113.898438 64.113281 113.699219 C 65.117188 113.347656 66.109375 113.460938 67.121094 113.453125 C 67.914062 113.449219 68.644531 113.742188 69.425781 113.75 C 70.289062 113.753906 71.152344 113.796875 71.96875 113.820312 Z M 71.96875 113.820312 " fill-opacity="1" fill-rule="nonzero"/></g><g clip-path="url(#e8fc0ea683)"><path fill="#372e17" d="M 89.804688 4.441406 C 89.75 5.058594 89.707031 5.597656 89.660156 6.121094 C 89.378906 6.6875 89.0625 7.222656 88.839844 7.796875 C 88.609375 8.40625 88.207031 8.867188 87.636719 9.183594 C 87.050781 8.925781 86.410156 8.679688 86.089844 8.007812 C 86.035156 7.238281 85.804688 6.4375 86.492188 5.855469 L 86.492188 4.507812 C 86.851562 3.277344 87.566406 2.34375 87.996094 1.269531 C 88.101562 1.003906 88.398438 0.8125 88.570312 0.628906 C 89.242188 0.414062 89.839844 0.460938 90.480469 0.640625 C 90.550781 0.855469 90.679688 1.070312 90.679688 1.285156 C 90.671875 1.976562 90.621094 2.667969 90.582031 3.371094 Z M 89.804688 4.441406 " fill-opacity="1" fill-rule="nonzero"/></g><g clip-path="url(#c3c603cd37)"><path fill="#372e17" d="M 109.457031 24.003906 L 109.457031 24.871094 C 108.820312 26.183594 107.507812 26.554688 106.308594 27.140625 C 105.886719 27.140625 105.550781 26.707031 105.050781 26.761719 C 104.667969 26.804688 104.277344 26.769531 104.058594 26.769531 C 103.394531 26.511719 103.402344 25.945312 103.089844 25.617188 C 103.445312 25.257812 103.367188 24.75 103.554688 24.21875 C 103.777344 24.035156 104.054688 23.765625 104.367188 23.554688 C 104.945312 23.171875 105.585938 22.90625 106.210938 22.671875 L 107.644531 22.671875 C 108.28125 23.03125 109.128906 23.125 109.457031 24.003906 Z M 109.457031 24.003906 " fill-opacity="1" fill-rule="nonzero"/></g><path fill="#372e17" d="M 99.699219 13.761719 L 99.699219 12.253906 C 99.914062 11.832031 100.152344 11.464844 100.53125 11.382812 C 100.953125 11.289062 101.195312 11.015625 101.476562 10.753906 C 101.757812 10.496094 102.039062 10.21875 102.277344 9.992188 C 102.789062 9.859375 103.292969 9.917969 103.640625 9.523438 C 104.007812 9.871094 104.488281 9.871094 104.9375 9.964844 C 105.359375 10.3125 105.296875 10.792969 105.28125 11.253906 C 105.25 11.324219 105.238281 11.410156 105.1875 11.460938 C 104.363281 12.289062 103.539062 13.113281 102.703125 13.945312 C 101.890625 13.863281 101.289062 14.605469 100.414062 14.421875 Z M 99.699219 13.761719 " fill-opacity="1" fill-rule="nonzero"/><path fill="#372e17" d="M 29.195312 71.347656 C 29.257812 71.183594 29.46875 70.894531 29.464844 70.605469 C 29.453125 69.589844 29.71875 68.585938 29.535156 67.5625 C 29.484375 67.265625 29.472656 66.890625 29.609375 66.640625 C 30.09375 65.746094 29.84375 64.800781 29.933594 63.953125 L 29.589844 63.140625 C 29.988281 62.101562 29.832031 60.910156 30.082031 59.769531 C 29.96875 58.925781 30.066406 58.042969 29.722656 57.246094 C 29.480469 56.671875 29.652344 56.191406 29.824219 55.695312 C 29.730469 55.46875 29.644531 55.253906 29.574219 55.078125 C 29.535156 53.777344 29.5 52.527344 29.464844 51.355469 C 29.308594 50.832031 29.085938 50.4375 29.097656 49.933594 C 29.132812 48.601562 29.085938 47.277344 28.957031 45.953125 C 28.945312 45.796875 29.027344 45.601562 28.957031 45.492188 C 28.386719 44.542969 28.664062 43.503906 28.601562 42.503906 C 28.582031 42.191406 28.589844 41.851562 28.464844 41.582031 C 28.09375 40.773438 28.003906 39.929688 28.066406 39.066406 C 28.101562 38.566406 27.863281 38.160156 27.703125 37.734375 C 27.679688 35.84375 27.660156 33.96875 27.632812 32.023438 C 27.53125 31.789062 27.410156 31.503906 27.253906 31.132812 C 27.332031 30.84375 27.433594 30.476562 27.558594 30.023438 C 27.320312 29.523438 27.054688 28.964844 26.75 28.328125 L 26.75 26.355469 C 27.367188 24.921875 28.707031 24.582031 30.015625 24.042969 C 31.332031 24.015625 32.738281 23.980469 34.148438 23.953125 C 34.546875 23.945312 34.914062 23.832031 35.285156 23.695312 C 35.816406 23.488281 36.351562 23.492188 36.886719 23.699219 C 37.257812 23.84375 37.621094 23.949219 38.019531 23.945312 C 38.960938 23.9375 39.902344 23.945312 40.691406 23.945312 L 42.578125 23.136719 C 42.921875 23.246094 43.277344 23.414062 43.648438 23.46875 C 44.03125 23.519531 44.429688 23.445312 44.820312 23.460938 C 45.234375 23.476562 45.582031 23.316406 45.957031 23.117188 C 46.085938 23.117188 46.242188 23.117188 46.398438 23.117188 C 48.121094 23.109375 49.84375 23.152344 51.566406 23.085938 C 53.125 23.023438 54.6875 22.980469 56.253906 23.089844 C 57.820312 23.199219 59.382812 23.113281 60.914062 23.113281 L 61.820312 23.433594 C 63.640625 23.007812 63.414062 22.941406 64.683594 23.480469 C 65.988281 23.5 67.242188 23.527344 68.492188 23.53125 C 69.746094 23.535156 71 23.535156 72.25 23.503906 C 72.734375 23.492188 73.15625 23.640625 73.574219 23.84375 C 74.242188 23.535156 74.894531 23.429688 75.589844 23.792969 C 76.203125 24.109375 76.808594 23.902344 77.363281 23.632812 L 85.398438 23.542969 C 85.601562 23.644531 85.796875 23.773438 86.015625 23.84375 C 87.214844 24.21875 87.738281 25.117188 87.890625 26.285156 C 87.957031 26.75 88.070312 27.199219 88.226562 27.640625 C 88.484375 28.398438 88.433594 29.1875 87.925781 29.945312 L 88.683594 31.851562 C 88.714844 32.875 88.746094 33.890625 88.777344 34.90625 C 88.800781 35.609375 88.742188 36.324219 89.136719 36.960938 C 89.1875 37.660156 89.25 38.359375 89.289062 39.058594 C 89.34375 39.988281 89.253906 40.941406 89.691406 41.820312 C 89.863281 42.988281 89.890625 44.160156 89.78125 45.335938 C 89.714844 45.964844 89.792969 46.578125 90.015625 47.167969 C 90.375 48.144531 90.351562 49.171875 90.035156 50.15625 C 89.828125 50.757812 89.75 51.371094 89.800781 52.003906 C 89.933594 53.417969 89.742188 54.820312 89.730469 56.226562 C 89.71875 57.398438 89.65625 58.574219 89.617188 59.839844 L 89.289062 60.640625 C 89.398438 60.921875 89.511719 61.207031 89.652344 61.570312 L 89.652344 63.390625 C 89.503906 63.964844 89.304688 64.34375 89.328125 64.710938 C 89.414062 66.277344 89.136719 67.839844 89.285156 69.40625 C 89.339844 69.960938 89.105469 70.472656 88.839844 70.894531 C 88.976562 71.277344 89.082031 71.570312 89.183594 71.863281 C 89.160156 72.40625 88.726562 72.84375 88.796875 73.429688 C 88.855469 73.890625 88.808594 74.367188 88.808594 74.707031 C 88.390625 75.582031 87.890625 76.113281 87 76.222656 C 86.632812 76.265625 86.300781 76.574219 85.925781 76.652344 C 84.941406 76.859375 83.980469 77.257812 82.929688 77.101562 C 82.636719 76.996094 82.355469 76.863281 82.054688 76.789062 C 81.507812 76.648438 80.972656 76.691406 80.429688 77.058594 L 79.277344 76.714844 L 78.449219 77.09375 C 78.320312 77.121094 78.1875 77.140625 78.054688 77.144531 C 76.328125 77.117188 74.605469 77.082031 72.882812 77.050781 C 72.648438 77.046875 72.40625 77.023438 72.183594 77.074219 C 71.480469 77.238281 70.78125 77.195312 70.078125 77.125 C 69.0625 77.027344 68.046875 77.054688 67.023438 77.085938 C 65.695312 77.125 64.359375 77.085938 63.03125 77.015625 C 62.425781 76.980469 61.878906 76.601562 61.210938 76.710938 C 60.683594 76.800781 60.121094 76.703125 59.570312 76.683594 C 58.945312 76.660156 58.320312 76.621094 57.695312 76.613281 C 57.144531 76.605469 56.597656 76.632812 56.046875 76.636719 C 55.890625 76.636719 55.734375 76.625 55.578125 76.605469 C 55.042969 76.53125 54.578125 76.207031 53.992188 76.269531 C 53.453125 76.332031 52.898438 76.234375 52.351562 76.21875 C 51.800781 76.203125 51.25 76.210938 50.703125 76.199219 C 50.546875 76.199219 50.390625 76.164062 50.210938 76.144531 L 49.144531 75.691406 C 48.746094 75.40625 48.660156 74.914062 48.4375 74.5 C 48.414062 74.0625 48.683594 73.761719 49.003906 73.554688 C 49.324219 73.34375 49.707031 73.234375 50.148438 73.039062 C 50.410156 73.125 50.777344 73.347656 51.132812 73.335938 C 53.089844 73.269531 55.042969 73.601562 57.003906 73.421875 C 57.460938 73.378906 57.9375 73.457031 58.398438 73.53125 C 59.246094 73.667969 59.246094 73.6875 59.707031 73.0625 L 59.601562 72.363281 C 58.714844 71.074219 57.339844 70.207031 56.476562 68.898438 C 56.398438 68.582031 56.320312 68.28125 56.230469 67.921875 C 55.015625 66.773438 53.96875 65.417969 53.078125 63.941406 C 52.796875 63.480469 52.378906 63.082031 52.171875 62.597656 C 51.972656 62.132812 51.632812 61.84375 51.320312 61.5 C 51.109375 61.269531 50.921875 61.015625 50.765625 60.746094 C 50.261719 59.867188 49.785156 58.984375 49.078125 58.226562 C 48.667969 57.785156 48.449219 57.167969 48.125 56.589844 C 47.925781 56.535156 47.707031 56.433594 47.480469 56.425781 C 46.855469 56.402344 46.226562 56.417969 45.828125 56.417969 C 44.855469 56.695312 44.246094 57.25 43.4375 57.328125 C 42.800781 57.390625 42.351562 57.933594 41.726562 58.042969 C 40.726562 58.984375 39.457031 59.355469 38.214844 59.738281 C 37.734375 60.171875 37.292969 60.621094 36.800781 61 C 36.496094 61.238281 36.113281 61.371094 35.8125 61.523438 C 35.242188 61.628906 34.648438 61.433594 34.222656 61.914062 C 34.195312 61.980469 34.179688 62.054688 34.167969 62.128906 C 34.160156 62.984375 34.097656 63.851562 34.167969 64.707031 C 34.269531 65.960938 34.0625 67.207031 34.148438 68.453125 C 34.164062 68.695312 34.109375 68.917969 33.992188 69.125 C 33.683594 69.613281 33.960938 70.019531 34.113281 70.5 C 33.882812 71.28125 33.578125 72.097656 33.773438 72.976562 L 34.136719 73.371094 L 35.632812 73.371094 L 36.335938 73.777344 C 36.765625 73.875 37.054688 73.546875 37.28125 73.472656 C 38.746094 73.472656 40.078125 73.476562 41.410156 73.472656 C 41.957031 73.472656 42.488281 73.566406 43.003906 73.753906 C 43.363281 73.878906 43.777344 73.875 44.15625 73.925781 C 44.351562 74.078125 44.558594 74.203125 44.71875 74.371094 C 45.011719 74.679688 45.023438 74.871094 44.796875 75.1875 C 44.707031 75.316406 44.59375 75.421875 44.464844 75.566406 C 43.988281 75.738281 43.480469 75.925781 42.96875 76.101562 C 42.460938 76.273438 41.875 76.195312 41.417969 76.566406 C 41.304688 76.652344 41.121094 76.667969 40.96875 76.675781 C 40.421875 76.703125 39.867188 76.675781 39.320312 76.734375 C 38.777344 76.796875 38.261719 76.933594 37.726562 77.023438 C 37.574219 77.046875 37.414062 77.015625 37.257812 77.023438 C 37.023438 77.027344 36.789062 77.042969 36.550781 77.046875 C 35.535156 77.070312 34.546875 77.222656 33.582031 77.59375 C 32.707031 77.925781 31.792969 78.148438 30.710938 77.96875 L 29.707031 77.246094 C 29.566406 76.90625 29.476562 76.601562 29.320312 76.335938 C 28.9375 75.691406 28.902344 75.015625 28.976562 74.296875 C 29.082031 73.351562 29.125 72.414062 29.195312 71.347656 Z M 47.890625 50.875 C 48.605469 51.171875 49.300781 51.355469 49.761719 51.941406 C 50.507812 52.246094 50.859375 53 51.503906 53.441406 C 52.148438 53.886719 52.515625 54.621094 52.894531 55.304688 C 53.039062 55.558594 53.027344 55.894531 53.074219 56.132812 L 54.21875 57.015625 C 54.503906 57.929688 55.363281 58.488281 55.679688 59.390625 C 55.824219 59.839844 56.050781 60.246094 56.363281 60.601562 C 56.71875 61.003906 56.980469 61.492188 57.292969 61.9375 C 57.464844 62.183594 57.835938 62.152344 58.078125 61.851562 C 58.222656 61.675781 58.351562 61.476562 58.5 61.265625 C 59.519531 60.738281 60.574219 60.21875 61.347656 59.289062 C 61.503906 59.109375 61.691406 58.96875 61.910156 58.871094 C 62.691406 58.515625 63.359375 57.945312 64.128906 57.582031 C 65.5 56.929688 66.589844 55.945312 67.65625 54.914062 C 67.9375 54.644531 68.210938 54.367188 68.394531 54.1875 L 69.40625 53.730469 L 71.972656 53.730469 C 72.738281 54.0625 73.429688 54.621094 74.328125 54.660156 C 75.054688 55.253906 75.773438 55.859375 76.511719 56.441406 C 77.054688 56.871094 77.441406 57.460938 78.042969 57.832031 C 78.285156 57.984375 78.394531 58.335938 78.59375 58.574219 C 78.804688 58.804688 79.027344 59.019531 79.265625 59.226562 C 79.433594 59.378906 79.71875 59.488281 79.769531 59.671875 C 79.910156 60.160156 80.234375 60.484375 80.578125 60.796875 C 81.453125 61.597656 82.136719 62.539062 82.6875 63.582031 C 82.757812 63.710938 82.894531 63.800781 82.953125 63.863281 L 84.25 64.449219 C 84.671875 64.183594 84.648438 63.761719 84.644531 63.398438 C 84.640625 62.898438 85.019531 62.542969 85.058594 61.980469 C 85.058594 61.132812 84.988281 60.191406 85.078125 59.261719 C 85.171875 58.316406 84.921875 57.382812 85.078125 56.445312 L 85.507812 55.441406 C 85.507812 54.75 85.523438 54.125 85.507812 53.496094 C 85.476562 52.40625 85.46875 52.40625 85.917969 51.207031 C 85.808594 50.953125 85.6875 50.671875 85.539062 50.328125 C 85.574219 49.683594 85.609375 48.984375 85.648438 48.300781 C 85.488281 48.191406 85.359375 48.03125 85.226562 48.027344 C 84.433594 48.023438 83.691406 47.8125 82.976562 47.488281 C 82.109375 47.097656 81.171875 47.039062 80.296875 46.933594 C 79.539062 46.605469 78.90625 46.136719 78.097656 46.019531 C 77.703125 45.949219 77.367188 45.769531 77.089844 45.480469 C 76.230469 44.542969 75.113281 43.996094 74.058594 43.355469 C 73.792969 43.195312 73.480469 43.089844 73.253906 42.886719 C 72.390625 42.097656 71.441406 41.390625 70.707031 40.460938 C 70.3125 39.96875 69.894531 39.503906 69.449219 39.0625 C 68.671875 38.273438 68.078125 37.378906 67.589844 36.390625 C 67.074219 35.34375 66.511719 34.324219 65.976562 33.289062 C 65.902344 33.152344 65.871094 32.996094 65.785156 32.75 L 65.785156 31.035156 L 65.238281 29.910156 L 65.238281 27.597656 C 65.09375 27.476562 64.988281 27.300781 64.867188 27.292969 C 63.929688 27.234375 62.992188 27.183594 62.054688 27.179688 C 61.660156 27.175781 61.285156 27.097656 60.921875 26.9375 C 60.613281 26.804688 60.3125 26.824219 60.019531 26.992188 C 59.496094 27.273438 58.941406 27.25 58.433594 27.066406 C 57.347656 26.671875 56.296875 26.851562 55.257812 27.128906 L 54.585938 26.796875 L 47.648438 26.796875 L 46.957031 27.15625 C 46.648438 27.15625 46.277344 27.261719 46.03125 27.136719 C 45.289062 26.75 44.503906 26.910156 43.742188 26.820312 C 43.339844 26.773438 42.976562 26.871094 42.609375 27.027344 C 42.328125 27.144531 42.007812 27.160156 41.707031 27.230469 C 41.40625 27.300781 41.0625 27.3125 40.816406 27.476562 C 40.480469 27.699219 40.246094 27.253906 39.96875 27.417969 C 39.546875 27.667969 39.082031 27.6875 38.609375 27.714844 C 37.0625 27.808594 35.488281 27.589844 33.976562 28.105469 C 32.980469 27.816406 32.203125 28.601562 31.273438 28.671875 C 31.179688 28.679688 31.058594 28.898438 31.027344 29.03125 C 30.996094 29.1875 31.015625 29.339844 31.085938 29.484375 C 31.394531 30.101562 31.320312 30.683594 31.015625 31.269531 C 30.945312 31.40625 30.945312 31.574219 30.898438 31.808594 L 31.265625 32.839844 C 31.324219 34.007812 31.136719 35.183594 31.425781 36.34375 C 31.480469 36.574219 31.488281 36.808594 31.457031 37.042969 C 31.351562 37.914062 31.542969 38.730469 31.753906 39.578125 C 31.960938 40.398438 31.925781 41.28125 32 42.136719 C 32.007812 42.21875 32.03125 42.289062 32.074219 42.359375 C 32.367188 42.855469 32.375 43.398438 32.367188 43.953125 C 32.359375 44.421875 32.390625 44.890625 32.394531 45.355469 C 32.402344 45.824219 32.398438 46.289062 32.398438 46.488281 C 32.601562 47.03125 32.789062 47.320312 32.804688 47.613281 C 32.851562 48.464844 33.023438 49.296875 33.132812 50.136719 C 33.277344 51.21875 33.378906 52.3125 33.296875 53.414062 C 33.265625 53.730469 33.300781 54.039062 33.402344 54.339844 C 33.742188 55.238281 33.6875 56.183594 33.78125 57.109375 C 33.804688 57.332031 33.867188 57.554688 33.914062 57.777344 C 34.929688 57.5625 35.324219 57.375 36.023438 56.894531 C 36.71875 56.414062 37.371094 55.8125 38.152344 55.492188 C 39.035156 55.132812 39.675781 54.417969 40.550781 54.054688 C 41.195312 53.773438 41.792969 53.40625 42.339844 52.960938 C 42.941406 52.480469 43.660156 52.195312 44.4375 52.007812 C 45.261719 51.808594 46.0625 51.507812 46.894531 51.300781 C 47.1875 51.230469 47.457031 51.0625 47.890625 50.875 Z M 82.554688 71.738281 C 82.308594 71.230469 82.042969 70.753906 81.839844 70.25 C 81.722656 69.957031 81.625 69.671875 81.410156 69.433594 C 80.878906 68.851562 80.566406 68.128906 80.25 67.425781 C 79.933594 66.722656 79.414062 66.109375 79.34375 65.304688 C 79.328125 65.226562 79.292969 65.15625 79.246094 65.09375 C 78.683594 64.253906 78.117188 63.414062 77.558594 62.570312 C 77.214844 62.054688 76.882812 61.53125 76.53125 61.019531 C 76.449219 60.898438 76.308594 60.816406 76.195312 60.714844 L 75.429688 60.554688 C 75.1875 60.34375 74.878906 60.105469 74.605469 59.832031 C 74.261719 59.492188 73.910156 59.222656 73.398438 59.1875 C 73.179688 59.171875 72.953125 59.058594 72.753906 58.949219 C 71.945312 58.503906 71.066406 58.230469 70.191406 57.9375 C 69.496094 58.425781 68.761719 58.871094 68.113281 59.421875 C 67.632812 59.828125 67.113281 60.152344 66.609375 60.515625 C 65.851562 61.058594 65.066406 61.554688 64.347656 62.164062 C 63.703125 62.703125 63.019531 63.234375 62.214844 63.566406 C 61.996094 63.660156 61.808594 63.792969 61.644531 63.960938 C 61.097656 64.511719 60.570312 65.082031 59.953125 65.734375 C 60.789062 66.445312 61.386719 67.339844 62.167969 68.082031 C 63.015625 68.882812 63.523438 69.972656 64.324219 70.863281 C 64.46875 71.515625 64.609375 72.195312 64.761719 72.875 C 64.832031 73.203125 65.066406 73.402344 65.40625 73.40625 C 67.199219 73.421875 68.996094 73.4375 70.792969 73.445312 C 71.023438 73.445312 71.285156 73.433594 71.484375 73.335938 C 72.285156 72.933594 73.136719 72.957031 73.996094 72.972656 C 74.777344 72.984375 75.558594 72.992188 76.339844 72.964844 C 76.804688 72.949219 77.300781 72.949219 77.726562 72.789062 C 78.480469 72.515625 79.238281 72.457031 80.023438 72.460938 C 80.414062 72.472656 80.800781 72.449219 81.1875 72.390625 C 81.699219 72.296875 82.230469 72.179688 82.554688 71.738281 Z M 69.566406 29.542969 C 70.003906 30.582031 70.003906 30.582031 70.027344 32.042969 C 70.132812 32.3125 70.246094 32.601562 70.402344 32.996094 L 70.402344 34.867188 C 70.59375 35.367188 70.976562 35.546875 71.207031 35.855469 C 71.441406 36.164062 71.527344 36.589844 71.792969 36.851562 C 72.945312 38.011719 73.996094 39.273438 75.226562 40.328125 L 76.207031 40.523438 L 77.289062 41.300781 C 77.929688 41.457031 78.582031 41.371094 79.113281 41.792969 C 79.242188 41.882812 79.390625 41.929688 79.550781 41.929688 C 80.183594 41.945312 80.71875 42.382812 81.355469 42.359375 C 81.996094 42.332031 82.496094 42.890625 83.144531 42.832031 C 83.792969 42.777344 84.308594 43.269531 84.933594 43.304688 C 85.117188 43.316406 85.429688 43.121094 85.453125 42.9375 C 85.65625 41.292969 85.65625 41.292969 85.09375 39.960938 C 85.023438 38.828125 84.910156 37.660156 85.171875 36.496094 C 85.320312 35.835938 84.941406 35.296875 84.722656 34.859375 C 84.621094 34.042969 84.535156 33.347656 84.445312 32.65625 C 83.910156 31.964844 84.246094 31.136719 84.105469 30.410156 C 83.589844 29.691406 83.441406 28.804688 82.871094 28.164062 C 82.546875 28.117188 82.21875 28.128906 81.941406 28.011719 C 81.417969 27.796875 80.878906 27.738281 80.335938 27.734375 C 79.789062 27.734375 79.242188 27.824219 78.699219 27.808594 C 78.078125 27.792969 77.453125 27.632812 76.839844 27.667969 C 76.214844 27.707031 75.59375 27.707031 74.972656 27.667969 C 74.355469 27.625 73.726562 27.800781 73.140625 27.445312 C 73.058594 27.394531 72.863281 27.503906 72.730469 27.5625 C 72.433594 27.695312 72.101562 27.769531 71.824219 27.636719 C 71.167969 27.320312 70.488281 27.28125 69.785156 27.328125 C 69.511719 27.679688 69.511719 27.679688 69.566406 29.542969 Z M 69.566406 29.542969 " fill-opacity="1" fill-rule="nonzero"/><path fill="#372e17" d="M 78.851562 93.394531 C 78.128906 94.230469 77.363281 95 76.347656 95.476562 C 76.140625 95.574219 75.964844 95.75 75.796875 95.910156 C 75.507812 96.183594 75.28125 96.496094 75.222656 96.90625 C 75.050781 98.0625 74.4375 98.910156 73.414062 99.472656 C 73.277344 99.542969 73.164062 99.671875 73.023438 99.722656 C 72.632812 99.859375 72.246094 99.832031 71.925781 99.542969 C 71.757812 99.390625 71.628906 99.1875 71.453125 98.972656 C 71.316406 97.753906 71.199219 96.519531 71.566406 95.292969 C 71.835938 94.65625 72.503906 94.210938 72.476562 93.433594 C 72.738281 93.144531 72.96875 92.8125 73.269531 92.582031 C 74.132812 91.917969 75.03125 91.292969 75.9375 90.640625 L 76.503906 89.558594 C 76.519531 89.246094 76.546875 88.859375 76.550781 88.46875 C 76.550781 88.238281 76.589844 87.957031 76.476562 87.785156 C 76.164062 87.300781 76.230469 86.730469 76.027344 86.230469 C 75.960938 86.085938 75.871094 85.960938 75.761719 85.847656 C 75.65625 85.730469 75.542969 85.621094 75.417969 85.527344 C 75.046875 85.246094 74.667969 84.972656 74.347656 84.738281 C 73.75 84.625 73.4375 85.078125 73.007812 85.238281 C 72.582031 85.402344 72.25 85.773438 71.808594 86.105469 L 70.53125 86.105469 C 69.886719 85.785156 69.484375 85.316406 69.140625 84.761719 L 69.140625 84.136719 C 69.398438 83.5625 70.035156 83.050781 70.25 82.355469 L 72.265625 81.003906 C 72.828125 80.960938 73.375 80.90625 73.921875 80.882812 C 74.550781 80.855469 75.171875 80.894531 75.722656 81.265625 C 75.859375 81.347656 76.007812 81.390625 76.167969 81.390625 C 76.683594 81.390625 77.042969 81.6875 77.402344 81.992188 C 77.527344 82.085938 77.640625 82.195312 77.738281 82.320312 C 78.566406 83.546875 79.597656 84.628906 80.277344 85.96875 C 80.277344 86.519531 80.222656 87.074219 80.292969 87.613281 C 80.402344 88.492188 80.34375 89.308594 79.957031 90.125 C 79.691406 90.675781 79.851562 91.34375 79.472656 91.910156 C 79.175781 92.339844 79.050781 92.894531 78.851562 93.394531 Z M 78.851562 93.394531 " fill-opacity="1" fill-rule="nonzero"/><path fill="#372e17" d="M 36.148438 86.996094 C 36.578125 86.324219 36.988281 85.671875 37.410156 85.023438 C 37.757812 84.484375 38.25 84.09375 38.8125 83.800781 C 39.4375 83.480469 40.074219 83.1875 40.710938 82.878906 C 41.320312 82.832031 41.953125 82.871094 42.433594 82.472656 C 43.273438 82.949219 44.167969 82.726562 45.113281 82.925781 C 47.140625 83.902344 47.140625 83.902344 48.273438 86.050781 C 48.3125 87.097656 48.367188 88.1875 48.386719 89.28125 C 48.394531 89.589844 48.28125 89.898438 48.269531 90.210938 C 48.222656 91.355469 47.636719 92.292969 46.980469 93.136719 C 46.308594 93.996094 45.464844 94.71875 44.683594 95.488281 C 44.523438 95.660156 44.328125 95.789062 44.105469 95.867188 C 43.535156 96.035156 43.230469 96.492188 42.851562 96.921875 C 42.761719 97.269531 42.660156 97.640625 42.539062 98.09375 L 41.410156 99.164062 L 40.277344 99.269531 C 39.226562 98.832031 39.011719 97.855469 38.566406 97.050781 C 39.191406 94.714844 39.007812 94.320312 42.472656 91.789062 C 42.640625 91.757812 42.871094 91.71875 43.097656 91.679688 C 43.25 91.652344 43.402344 91.617188 43.578125 91.582031 C 44.171875 91.199219 44.484375 90.546875 44.910156 90.039062 C 45.15625 89.160156 45.132812 88.304688 45.003906 87.421875 C 44.726562 86.890625 44.449219 86.324219 43.757812 86.121094 C 43.054688 86.199219 42.4375 86.523438 41.839844 86.90625 L 40.402344 87.109375 C 39.972656 87.523438 39.527344 87.957031 39.082031 88.386719 L 38.414062 88.621094 C 37.460938 88.953125 36.996094 88.769531 36.539062 87.867188 C 36.398438 87.59375 36.285156 87.304688 36.148438 86.996094 Z M 36.148438 86.996094 " fill-opacity="1" fill-rule="nonzero"/><path fill="#372e17" d="M 58.011719 97.832031 C 57.453125 98.53125 56.710938 98.945312 55.976562 99.273438 C 55.519531 99.316406 55.132812 99.332031 54.78125 99.117188 C 54.511719 98.867188 54.296875 98.582031 54.136719 98.25 C 53.761719 96.8125 54.441406 95.832031 54.480469 94.859375 C 55.652344 93.253906 57.160156 92.328125 58.835938 91.746094 C 59.15625 91.324219 59.433594 90.949219 59.722656 90.585938 C 59.964844 90.285156 60.21875 89.988281 60.394531 89.78125 C 60.636719 88.957031 60.601562 88.300781 60.261719 87.621094 C 60.09375 87.292969 60.136719 86.859375 60.074219 86.398438 L 58.910156 84.773438 C 58.128906 84.792969 57.6875 85.203125 57.414062 85.804688 C 57.289062 86.082031 57.308594 86.425781 57.179688 86.703125 C 56.976562 87.136719 56.671875 87.496094 56.140625 87.546875 C 55.515625 87.609375 54.894531 87.660156 54.160156 87.441406 C 53.386719 86.726562 52.9375 85.792969 53.113281 84.570312 C 53.449219 84.089844 53.808594 83.578125 54.257812 82.933594 C 54.519531 82.777344 54.902344 82.507812 55.320312 82.304688 C 56.082031 81.933594 57 81.984375 57.714844 81.464844 L 59.191406 81.464844 C 59.757812 81.746094 60.390625 82.042969 61.007812 82.367188 C 62.417969 83.109375 63.207031 84.308594 63.4375 85.859375 C 63.5 86.261719 63.675781 86.59375 63.855469 87 L 63.855469 89.367188 C 63.757812 89.582031 63.625 89.863281 63.445312 90.25 C 63.414062 90.839844 63.378906 91.535156 63.34375 92.21875 C 62.683594 93.246094 61.742188 93.964844 60.957031 94.8125 L 58.863281 95.925781 C 58.578125 96.574219 58.292969 97.207031 58.011719 97.832031 Z M 58.011719 97.832031 " fill-opacity="1" fill-rule="nonzero"/><path fill="#372e17" d="M 76.058594 105.832031 C 75.589844 106.546875 75.191406 107.316406 74.371094 107.703125 L 73.230469 107.703125 C 71.914062 106.914062 71.035156 105.902344 71.015625 104.273438 L 72.105469 103.171875 C 72.878906 102.976562 73.578125 103.160156 74.230469 103.121094 C 74.554688 103.25 74.839844 103.375 75.132812 103.484375 C 75.890625 103.769531 76.199219 104.34375 76.152344 105.128906 C 76.140625 105.359375 76.089844 105.589844 76.058594 105.832031 Z M 76.058594 105.832031 " fill-opacity="1" fill-rule="nonzero"/><path fill="#372e17" d="M 54.519531 104.898438 C 54.34375 104.007812 54.34375 103.1875 55.289062 102.660156 C 55.867188 102.492188 56.484375 102.453125 57.0625 102.726562 C 57.609375 102.980469 58.25 103.128906 58.445312 103.582031 C 58.769531 104.292969 58.660156 104.828125 58.605469 105.363281 C 58.230469 105.925781 58.1875 106.707031 57.527344 107.042969 C 57.132812 107.265625 56.738281 107.15625 56.367188 107.164062 C 55.980469 107.035156 55.617188 106.789062 55.503906 106.449219 C 55.296875 105.832031 54.78125 105.449219 54.519531 104.898438 Z M 54.519531 104.898438 " fill-opacity="1" fill-rule="nonzero"/><path fill="#372e17" d="M 42.234375 106.332031 C 41.855469 107.117188 41.332031 107.324219 40.863281 107.628906 L 39.71875 107.628906 L 38.648438 107.039062 C 38.363281 106.320312 38.335938 105.566406 38.523438 104.726562 L 39.507812 103.734375 C 40.03125 103.449219 40.417969 103.527344 40.886719 103.539062 L 41.988281 104.417969 C 42.40625 105.136719 42.226562 105.761719 42.234375 106.332031 Z M 42.234375 106.332031 " fill-opacity="1" fill-rule="nonzero"/><g fill="#ffffff" fill-opacity="1"><g transform="translate(56.236282, 43.905745)"><g><path d="M 1.4375 0.078125 C 1.15625 0.078125 0.925781 -0.00390625 0.75 -0.171875 C 0.570312 -0.347656 0.484375 -0.566406 0.484375 -0.828125 C 0.484375 -1.078125 0.570312 -1.285156 0.75 -1.453125 C 0.925781 -1.628906 1.15625 -1.71875 1.4375 -1.71875 C 1.707031 -1.71875 1.925781 -1.628906 2.09375 -1.453125 C 2.269531 -1.285156 2.359375 -1.078125 2.359375 -0.828125 C 2.359375 -0.566406 2.269531 -0.347656 2.09375 -0.171875 C 1.925781 -0.00390625 1.707031 0.078125 1.4375 0.078125 Z M 1.4375 0.078125 "/></g></g></g></svg>